<svg width="19" height="24" viewBox="0 0 19 24" fill="none" xmlns="http://www.w3.org/2000/svg">
<path opacity="0.9" d="M9.65589 19.8369C9.88927 19.8174 10.0886 19.725 10.2539 19.5597C10.4192 19.3944 10.5019 19.1951 10.5019 18.9617C10.5019 18.6894 10.4144 18.4707 10.2393 18.3054C10.0643 18.14 9.84065 18.0671 9.56837 18.0866C8.77101 18.1449 7.92503 17.9261 7.03042 17.4302C6.13582 16.9343 5.57183 16.0348 5.33845 14.7318C5.29956 14.5179 5.19746 14.3428 5.03215 14.2067C4.86684 14.0706 4.67722 14.0025 4.4633 14.0025C4.19103 14.0025 3.96738 14.1046 3.79234 14.3088C3.61731 14.513 3.55897 14.7512 3.61731 15.0235C3.94793 16.7933 4.72584 18.0574 5.95106 18.8159C7.17628 19.5743 8.41122 19.9147 9.65589 19.8369ZM9.335 23.3375C6.67064 23.3375 4.44871 22.4234 2.66923 20.5953C0.889742 18.7672 0 16.4918 0 13.7691C0 11.8243 0.773055 9.70937 2.31916 7.42424C3.86527 5.13911 6.20389 2.66436 9.335 0C12.4661 2.66436 14.8047 5.13911 16.3508 7.42424C17.8969 9.70937 18.67 11.8243 18.67 13.7691C18.67 16.4918 17.7803 18.7672 16.0008 20.5953C14.2213 22.4234 11.9994 23.3375 9.335 23.3375ZM9.335 21.0037C11.3576 21.0037 13.0301 20.3182 14.3526 18.9471C15.675 17.5761 16.3363 15.8501 16.3363 13.7691C16.3363 12.3494 15.748 10.745 14.5714 8.95577C13.3948 7.16656 11.6493 5.21204 9.335 3.09222C7.0207 5.21204 5.27525 7.16656 4.09865 8.95577C2.92205 10.745 2.33375 12.3494 2.33375 13.7691C2.33375 15.8501 2.99498 17.5761 4.31744 18.9471C5.6399 20.3182 7.31242 21.0037 9.335 21.0037Z" fill="currentColor"/>
</svg>
